<?xml version="1.0" standalone="no"?>
<!DOCTYPE svg PUBLIC "-//W3C//DTD SVG 20010904//EN"
 "http://www.w3.org/TR/2001/REC-SVG-20010904/DTD/svg10.dtd">
<svg version="1.0" xmlns="http://www.w3.org/2000/svg"
 width="64.000000pt" height="64.000000pt" viewBox="0 0 64.000000 64.000000"
 preserveAspectRatio="xMidYMid meet">

<g transform="translate(0.000000,64.000000) scale(0.100000,-0.100000)"
fill="#000000" stroke="none">
<path d="M220 590 c-104 -35 -190 -157 -190 -270 0 -48 25 -128 49 -160 31
-39 37 -15 10 42 -32 69 -33 174 -2 233 25 47 74 95 123 121 52 27 172 26 225
-3 47 -25 95 -74 121 -123 27 -52 26 -172 -3 -226 -24 -45 -89 -108 -122 -119
-21 -6 -30 -35 -11 -35 49 0 153 108 175 183 33 112 10 204 -74 288 -87 87
-185 109 -301 69z"/>
<path d="M290 476 c-28 -35 11 -93 48 -70 35 22 22 84 -18 84 -10 0 -23 -7
-30 -14z"/>
<path d="M280 314 c-6 -14 -10 -47 -10 -74 0 -73 13 -100 50 -100 37 0 50 27
50 100 0 73 -13 100 -50 100 -24 0 -33 -6 -40 -26z"/>
<path d="M156 103 c-12 -12 -6 -23 24 -38 30 -16 56 -12 45 6 -9 14 -62 39
-69 32z"/>
</g>
</svg>
